HIERARCHY
ROOT hip
{
  OFFSET 0 0 0
  CHANNELS 6 Xposition Yposition Zposition Zrotation Yrotation Xrotation
  JOINT abdomen
  {
    OFFSET 0 20.6881 -0.73152
    CHANNELS 3 Zrotation Xrotation Yrotation
    JOINT chest
    {
      OFFSET 0 11.7043 -0.48768
      CHANNELS 3 Zrotation Xrotation Yrotation
      JOINT neck
      {
        OFFSET 0 22.1894 -2.19456
        CHANNELS 3 Zrotation Xrotation Yrotation
        JOINT head
        {
          OFFSET -0.24384 7.07133 1.2192
          CHANNELS 3 Zrotation Xrotation Yrotation
          JOINT leftEye
          {
            OFFSET 4.14528 8.04674 8.04672
            CHANNELS 3 Zrotation Xrotation Yrotation
            End Site
            {
              OFFSET 1 0 0
            }
          }
          JOINT rightEye
          {
            OFFSET -3.6576 8.04674 8.04672
            CHANNELS 3 Zrotation Xrotation Yrotation
            End Site
            {
              OFFSET 1 0 0
            }
          }
        }
      }
      JOINT rCollar
      {
        OFFSET -2.68224 19.2634 -4.8768
        CHANNELS 3 Zrotation Xrotation Yrotation
        JOINT rShldr
        {
          OFFSET -8.77824 -1.95073 1.46304
          CHANNELS 3 Zrotation Xrotation Yrotation
          JOINT rForeArm
          {
            OFFSET -28.1742 -1.7115 0.48768
            CHANNELS 3 Zrotation Xrotation Yrotation
            JOINT rHand
            {
              OFFSET -22.5879 0.773209 7.07136
              CHANNELS 3 Zrotation Xrotation Yrotation
              JOINT rThumb1
              {
                OFFSET -1.2192 -0.487915 3.41376
                CHANNELS 3 Zrotation Xrotation Yrotation
                JOINT rThumb2
                {
                  OFFSET -3.37035 -0.52449 3.41376
                  CHANNELS 3 Zrotation Xrotation Yrotation
                  End Site
                  {
                    OFFSET -1.78271 -1.18214 1.43049
                  }
                }
              }
              JOINT rIndex1
              {
                OFFSET -7.75947 0.938293 5.60832
                CHANNELS 3 Zrotation Xrotation Yrotation
                JOINT rIndex2
                {
                  OFFSET -2.54057 -0.884171 1.56538
                  CHANNELS 3 Zrotation Xrotation Yrotation
                  End Site
                  {
                    OFFSET -1.62519 -0.234802 1.16502
                  }
                }
              }
              JOINT rMid1
              {
                OFFSET -8.24714 1.18213 3.41376
                CHANNELS 3 Zrotation Xrotation Yrotation
                JOINT rMid2
                {
                  OFFSET -3.10165 -0.590103 1.0647
                  CHANNELS 3 Zrotation Xrotation Yrotation
                  End Site
                  {
                    OFFSET -2.48547 -0.328903 0.83742
                  }
                }
              }
              JOINT rRing1
              {
                OFFSET -8.82822 0.546677 1.51678
                CHANNELS 3 Zrotation Xrotation Yrotation
                JOINT rRing2
                {
                  OFFSET -2.60934 -0.819778 -0.0198488
                  CHANNELS 3 Zrotation Xrotation Yrotation
                  End Site
                  {
                    OFFSET -2.33842 -0.294052 0.168128
                  }
                }
              }
              JOINT rPinky1
              {
                OFFSET -8.27202 -0.0477905 -0.4584
                CHANNELS 3 Zrotation Xrotation Yrotation
                JOINT rPinky2
                {
                  OFFSET -1.82734 -0.647385 -0.700984
                  CHANNELS 3 Zrotation Xrotation Yrotation
                  End Site
                  {
                    OFFSET -1.69225 -0.51767 -0.607171
                  }
                }
              }
            }
          }
        }
      }
      JOINT lCollar
      {
        OFFSET 2.68224 19.2634 -4.8768
        CHANNELS 3 Zrotation Xrotation Yrotation
        JOINT lShldr
        {
          OFFSET 8.77824 -1.95073 1.46304
          CHANNELS 3 Zrotation Xrotation Yrotation
          JOINT lForeArm
          {
            OFFSET 28.1742 -1.7115 0.48768
            CHANNELS 3 Zrotation Xrotation Yrotation
            JOINT lHand
            {
              OFFSET 22.5879 0.773209 7.07136
              CHANNELS 3 Zrotation Xrotation Yrotation
              JOINT lThumb1
              {
                OFFSET 1.2192 -0.487915 3.41376
                CHANNELS 3 Zrotation Xrotation Yrotation
                JOINT lThumb2
                {
                  OFFSET 3.37035 -0.52449 3.41376
                  CHANNELS 3 Zrotation Xrotation Yrotation
                  End Site
                  {
                    OFFSET 1.78271 -1.18214 1.43049
                  }
                }
              }
              JOINT lIndex1
              {
                OFFSET 7.75947 0.938293 5.60832
                CHANNELS 3 Zrotation Xrotation Yrotation
                JOINT lIndex2
                {
                  OFFSET 2.54057 -0.884171 1.56538
                  CHANNELS 3 Zrotation Xrotation Yrotation
                  End Site
                  {
                    OFFSET 1.62519 -0.234802 1.16502
                  }
                }
              }
              JOINT lMid1
              {
                OFFSET 8.24714 1.18213 3.41376
                CHANNELS 3 Zrotation Xrotation Yrotation
                JOINT lMid2
                {
                  OFFSET 3.10165 -0.590103 1.0647
                  CHANNELS 3 Zrotation Xrotation Yrotation
                  End Site
                  {
                    OFFSET 2.48547 -0.328903 0.83742
                  }
                }
              }
              JOINT lRing1
              {
                OFFSET 8.82822 0.546677 1.51678
                CHANNELS 3 Zrotation Xrotation Yrotation
                JOINT lRing2
                {
                  OFFSET 2.60934 -0.819778 -0.0198488
                  CHANNELS 3 Zrotation Xrotation Yrotation
                  End Site
                  {
                    OFFSET 2.33842 -0.294052 0.168128
                  }
                }
              }
              JOINT lPinky1
              {
                OFFSET 8.27202 -0.0477905 -0.4584
                CHANNELS 3 Zrotation Xrotation Yrotation
                JOINT lPinky2
                {
                  OFFSET 1.82734 -0.647385 -0.700984
                  CHANNELS 3 Zrotation Xrotation Yrotation
                  End Site
                  {
                    OFFSET 1.69225 -0.51767 -0.607171
                  }
                }
              }
            }
          }
        }
      }
    }
  }
  JOINT rButtock
  {
    OFFSET -8.77824 4.35084 1.2192
    CHANNELS 3 Zrotation Xrotation Yrotation
    JOINT rThigh
    {
      OFFSET 0 -1.70687 -2.19456
      CHANNELS 3 Zrotation Xrotation Yrotation
      JOINT rShin
      {
        OFFSET 0 -36.8199 0.73152
        CHANNELS 3 Zrotation Xrotation Yrotation
        JOINT rFoot
        {
          OFFSET 0.73152 -45.1104 -5.12064
          CHANNELS 3 Zrotation Xrotation Yrotation
          End Site
          {
            OFFSET -1.1221 -3.69964 12.103
          }
        }
      }
    }
  }
  JOINT lButtock
  {
    OFFSET 8.77824 4.35084 1.2192
    CHANNELS 3 Zrotation Xrotation Yrotation
    JOINT lThigh
    {
      OFFSET 0 -1.70687 -2.19456
      CHANNELS 3 Zrotation Xrotation Yrotation
      JOINT lShin
      {
        OFFSET 0 -36.8199 0.73152
        CHANNELS 3 Zrotation Xrotation Yrotation
        JOINT lFoot
        {
          OFFSET -0.73152 -45.1104 -5.12064
          CHANNELS 3 Zrotation Xrotation Yrotation
          End Site
          {
            OFFSET 1.1221 -3.69964 12.103
          }
        }
      }
    }
  }
}
MOTION
Frames:	5
Frame Time:	0.00833333
-5.57231 84.0027 34.8135 -4.88 -4.381 3.2134 0.292477 10.8508 0.427183 -0.0150345 -2.09895 0.117742 0.818605 16.7439 -0.0835306 6.91844 -31.065 1.76569 -0.0 0.0 0.0 -0.0 0.0 0.0 -2.43555e-14 -2.16627e-13 5.74383e-14 9.82214 2.5258 27.6327 -22.2565 -51.3702 108.406 -1.15585 -28.9685 -4.46363 5.51772e-10 1.58746e-09 2.14812e-09 8.9944e-10 2.69523e-09 3.73431e-09 5.51755e-10 1.58745e-09 2.14811e-09 7.73091 5.47488 0.417314 5.51772e-10 1.58746e-09 2.14812e-09 2.90554 0.965183 0.102902 5.51777e-10 1.58746e-09 2.14812e-09 10.2786 0.731801 0.0259123 5.51771e-10 1.58746e-09 2.14813e-09 2.22167 -0.733487 -0.20892 -2.4426e-14 -2.16624e-13 5.72135e-14 -58.1827 46.8756 -13.8368 24.6553 -48.5053 -101.14 0.260473 -14.3786 2.06474 -1.29137e-10 3.11332e-09 1.60292e-09 -2.35545e-10 5.42006e-09 2.767e-09 -1.29143e-10 3.11331e-09 1.60292e-09 -7.73091 5.47488 -0.417314 -1.29139e-10 3.11331e-09 1.60292e-09 -2.90554 0.965183 -0.102902 -1.2914e-10 3.11331e-09 1.60291e-09 -10.2786 0.731801 -0.0259123 -1.29127e-10 3.11331e-09 1.6029e-09 -2.22167 -0.733487 0.20892 -2.03217e-16 0.0 -3.88251e-19 -21.6507 -2.95708 -0.0116296 -0.000189192 -0.522279 -0.00132836 0.5479 3.47943 -0.0223168 2.03217e-16 0.0 3.88251e-19 11.4652 -11.5118 -4.75708 0.0637391 23.8098 -0.625578 5.74292 -18.7765 16.7896
-5.56932 84.0013 34.8138 -4.8905 -4.3604 3.2146 0.317398 10.7862 0.449443 0.00354587 -2.10875 0.124334 0.942022 16.7596 -0.0965512 6.64731 -31.0395 1.66492 -0.0 0.0 0.0 -0.0 0.0 0.0 -8.6844e-14 -2.06141e-13 -4.19715e-14 9.84156 2.78947 27.5728 -22.2463 -51.3805 108.434 -1.10349 -28.3668 -4.35366 7.42521e-10 1.64297e-09 2.00051e-09 1.23325e-09 2.79765e-09 3.48242e-09 7.42513e-10 1.64296e-09 2.0005e-09 7.73091 5.47488 0.417314 7.42521e-10 1.64297e-09 2.00051e-09 2.90554 0.965183 0.102902 7.42527e-10 1.64297e-09 2.00052e-09 10.2786 0.731801 0.0259123 7.42522e-10 1.64296e-09 2.00053e-09 2.22167 -0.733487 -0.20892 -8.69244e-14 -2.06139e-13 -4.2161e-14 -58.2266 46.8992 -13.8131 24.6491 -48.514 -101.16 0.261112 -14.3958 2.06732 -2.09311e-10 3.52638e-09 1.85061e-09 -3.76746e-10 6.14504e-09 3.19604e-09 -2.09316e-10 3.52638e-09 1.85062e-09 -7.73091 5.47488 -0.417314 -2.09312e-10 3.52638e-09 1.85061e-09 -2.90554 0.965183 -0.102902 -2.09316e-10 3.52638e-09 1.8506e-09 -10.2786 0.731801 -0.0259123 -2.09302e-10 3.52638e-09 1.85059e-09 -2.22167 -0.733487 0.20892 -2.03217e-16 0.0 -3.88251e-19 -21.6506 -2.9574 -0.0116274 -0.000184459 -0.521081 -0.00128819 0.548325 3.4785 -0.0223885 2.03217e-16 0.0 3.88251e-19 11.4732 -11.5243 -4.75961 0.0641004 23.811 -0.626691 5.73245 -18.7491 16.7831
-5.56379 83.9997 34.8149 -4.894 -4.3354 3.2189 0.340289 10.7304 0.473801 0.0193652 -2.11966 0.13149 1.06089 16.7607 -0.110636 6.39814 -30.997 1.56685 -0.0 0.0 0.0 -0.0 0.0 0.0 -1.43091e-13 -1.82435e-13 -1.37441e-13 9.86892 3.05272 27.5063 -22.2375 -51.3893 108.458 -1.05442 -27.8068 -4.25152 8.81541e-10 1.59464e-09 1.73525e-09 1.48048e-09 2.72285e-09 3.02554e-09 8.81541e-10 1.59463e-09 1.73523e-09 7.73091 5.47488 0.417314 8.81541e-10 1.59464e-09 1.73525e-09 2.90554 0.965183 0.102902 8.81547e-10 1.59464e-09 1.73525e-09 10.2786 0.731801 0.0259123 8.81543e-10 1.59463e-09 1.73526e-09 2.22167 -0.733487 -0.20892 -1.43178e-13 -1.82435e-13 -1.376e-13 -58.2611 46.9258 -13.7906 24.6417 -48.5246 -101.185 0.261837 -14.4152 2.07023 -2.67828e-10 3.69756e-09 1.97932e-09 -4.79488e-10 6.44856e-09 3.41963e-09 -2.67831e-10 3.69756e-09 1.97933e-09 -7.73091 5.47488 -0.417314 -2.67827e-10 3.69756e-09 1.97932e-09 -2.90554 0.965183 -0.102902 -2.67834e-10 3.69756e-09 1.97931e-09 -10.2786 0.731801 -0.0259123 -2.67821e-10 3.69756e-09 1.9793e-09 -2.22167 -0.733487 0.20892 -2.03217e-16 0.0 -3.88251e-19 -21.6506 -2.95785 -0.0116271 -0.000180084 -0.51981 -0.00125125 0.548755 3.47765 -0.0224599 2.03217e-16 0.0 3.88251e-19 11.4813 -11.5334 -4.76208 0.0644703 23.8125 -0.627983 5.72329 -18.7207 16.7789
-5.56209 83.9991 34.817 -4.9103 -4.3177 3.216 0.356457 10.6827 0.49131 0.0356363 -2.1208 0.136922 1.12492 16.7256 -0.115068 6.25156 -30.9019 1.51184 -0.0 0.0 0.0 -0.0 0.0 0.0 -1.60678e-13 -1.47896e-13 -1.89144e-13 9.90066 3.30963 27.4605 -22.2356 -51.3912 108.463 -0.996292 -27.1241 -4.12846 8.86093e-10 1.41088e-09 1.39871e-09 1.49693e-09 2.41405e-09 2.44225e-09 8.86099e-10 1.41088e-09 1.3987e-09 7.73091 5.47488 0.417314 8.86093e-10 1.41088e-09 1.39871e-09 2.90554 0.965183 0.102902 8.861e-10 1.41088e-09 1.39872e-09 10.2786 0.731801 0.0259123 8.86095e-10 1.41088e-09 1.39873e-09 2.22167 -0.733487 -0.20892 -1.60768e-13 -1.47896e-13 -1.89293e-13 -58.2919 46.942 -13.7633 24.6372 -48.5311 -101.201 0.262441 -14.4314 2.07265 -2.51048e-10 3.3594e-09 1.85923e-09 -4.49582e-10 5.8625e-09 3.2131e-09 -2.51049e-10 3.3594e-09 1.85924e-09 -7.73091 5.47488 -0.417314 -2.51045e-10 3.3594e-09 1.85923e-09 -2.90554 0.965183 -0.102902 -2.51055e-10 3.3594e-09 1.85923e-09 -10.2786 0.731801 -0.0259123 -2.51042e-10 3.3594e-09 1.85922e-09 -2.22167 -0.733487 0.20892 -2.03217e-16 0.0 -3.88251e-19 -21.6504 -2.95837 -0.0116342 -0.000178486 -0.518886 -0.00123834 0.548858 3.47721 -0.0224796 2.03217e-16 0.0 3.88251e-19 11.4811 -11.5335 -4.76223 0.0647878 23.8125 -0.628382 5.71475 -18.7004 16.7698
-5.55526 83.9999 34.8243 -4.9068 -4.3011 3.1939 0.36144 10.6487 0.497692 0.0538558 -2.10681 0.139547 1.11337 16.6284 -0.105118 6.2425 -30.724 1.51647 -0.0 0.0 0.0 -0.0 0.0 0.0 -1.13269e-13 -9.25595e-14 -1.80998e-13 9.93461 3.55268 27.4463 -22.2438 -51.383 108.441 -0.925462 -26.2457 -3.97291 6.66101e-10 9.97267e-10 9.33173e-10 1.12862e-09 1.70866e-09 1.63043e-09 6.66108e-10 9.97266e-10 9.3316e-10 7.73091 5.47488 0.417314 6.66101e-10 9.97266e-10 9.33173e-10 2.90554 0.965183 0.102902 6.66108e-10 9.97264e-10 9.33178e-10 10.2786 0.731801 0.0259123 6.66101e-10 9.9726e-10 9.3319e-10 2.22167 -0.733487 -0.20892 -1.13358e-13 -9.25588e-14 -1.81172e-13 -58.3165 46.9443 -13.7269 24.6365 -48.5321 -101.203 0.262932 -14.4445 2.07462 -8.85926e-11 2.13177e-09 1.34227e-09 -1.63762e-10 3.72423e-09 2.32076e-09 -8.85934e-11 2.13177e-09 1.34228e-09 -7.73091 5.47488 -0.417314 -8.8587e-11 2.13177e-09 1.34227e-09 -2.90554 0.965183 -0.102902 -8.86001e-11 2.13177e-09 1.34227e-09 -10.2786 0.731801 -0.0259123 -8.8588e-11 2.13177e-09 1.34226e-09 -2.22167 -0.733487 0.20892 -2.03217e-16 0.0 -3.88251e-19 -21.6498 -2.95898 -0.011653 -0.000181202 -0.518439 -0.00126286 0.548434 3.47735 -0.0224171 2.03217e-16 0.0 3.88251e-19 11.4676 -11.52 -4.75794 0.0650569 23.8094 -0.627222 5.70578 -18.6899 16.7509
